<svg width="60" height="60" viewBox="0 0 60 60" fill="none" xmlns="http://www.w3.org/2000/svg">
<path d="M29 4C27.6667 13.9667 9 16.5667 9 16.5667C9 16.5667 8.5 50.5 29 56" stroke="black" stroke-width="2"/>
<path d="M29 4C30.3333 13.9667 48.9989 16.5667 48.9989 16.5667C48.9989 16.5667 49.4989 50.5 29 56" stroke="black" stroke-width="2"/>
<path d="M28 56L28.3645 56.3645M28.3645 56.3645L29 57L30 56L28.3645 56.3645Z" stroke="black"/>
<path d="M29 3C29 3 28.5 3.5 28.5 4C28.5 4.5 29 4.5 29 4.5C29 4.5 29.5 4.5 29.5 4C29.5 3.5 29 3 29 3Z" stroke="black"/>
<path d="M22 29.5L27.5 34.5L36 25" stroke="black" stroke-width="2"/>
</svg>
