<svg width="50" height="50" viewBox="0 0 50 50" fill="none" xmlns="http://www.w3.org/2000/svg">
<path d="M19.3719 12.3666L13.5074 3.15257C11.9483 2.97569 11.1616 2.68006 7.87751 4.09761C4.59341 5.51515 1.63165 13.374 2.50001 16.5C11.519 35.0367 19.9031 42.8151 31.3532 47.686C33.8345 48.2373 37.8288 47.3422 39.7802 46.8603C42.4604 45.9679 43.8608 45.1793 46.1138 43.0802C46.9206 42.238 47.3343 41.2835 47.9904 38.5913C48.0412 37.4577 47.9017 36.9777 47.2867 36.4649C44.7738 35.3825 43.1754 34.6171 37.669 31.031C36.9416 30.9352 36.2339 31.0333 35.5578 31.976C32.8706 35.7595 30.4967 37.6 29.5 37.5C20.8274 31.8495 18.1711 28.0245 13.5074 20.1631C13.5427 19.5821 13.6946 19.2673 14.4457 18.7456C15.7751 17.4849 16.7677 16.6498 19.3719 14.7292C19.7287 14.0213 19.7763 13.5326 19.3719 12.3666Z" stroke="#38C4F5" stroke-width="2"/>
</svg>
