<svg width="50" height="50" viewBox="0 0 50 50" fill="none" xmlns="http://www.w3.org/2000/svg">
<path d="M11 36C11 32 15 32 15 32C15 32 19 32 19 36C19 40 15 40 15 40C15 40 11 40 11 36Z" stroke="#38C4F5" stroke-width="2"/>
<path d="M2 14C2 10 6 10 6 10C6 10 10 10 10 14C10 18 6 18 6 18C6 18 2 18 2 14Z" stroke="#38C4F5" stroke-width="2"/>
<path d="M19 35H37" stroke="#38C4F5" stroke-width="2"/>
<path d="M34 34V17.8889L31 14H10" stroke="#38C4F5" stroke-width="2"/>
<path d="M37 36C37 32 41 32 41 32C41 32 45 32 45 36C45 40 41 40 41 40C41 40 37 40 37 36Z" stroke="#38C4F5" stroke-width="2"/>
<path d="M44.5 35H48V25.8462L44.5 18H34" stroke="#38C4F5" stroke-width="2"/>
<path d="M48 26H35" stroke="#38C4F5" stroke-width="2"/>
<path d="M11 35H6V18" stroke="#38C4F5" stroke-width="2"/>
<path d="M6 11V14H8" stroke="#38C4F5" stroke-width="2"/>
</svg>
