<svg width="60" height="60" viewBox="0 0 60 60" fill="none" xmlns="http://www.w3.org/2000/svg">
<path d="M5 24C5 24 9.83621 5 30.5 5C51.1638 5 56 24 56 24" stroke="black" stroke-width="2"/>
<path d="M56 37C56 37 51.1638 56 30.5 56C9.83621 56 5 37 5 37" stroke="black" stroke-width="2"/>
<path d="M4.32918 25.3354C4.51442 25.7059 4.96493 25.8561 5.33541 25.6708L11.3728 22.6521C11.7433 22.4669 11.8934 22.0164 11.7082 21.6459C11.523 21.2754 11.0725 21.1252 10.702 21.3105L5.33541 23.9938L2.65213 18.6272C2.46689 18.2567 2.01638 18.1066 1.6459 18.2918C1.27541 18.477 1.12525 18.9275 1.31049 19.298L4.32918 25.3354ZM5.28849 21.7628L4.28849 24.7628L5.71151 25.2372L6.71151 22.2372L5.28849 21.7628Z" fill="black"/>
<path d="M56.6708 35.6646C56.4856 35.2941 56.0351 35.1439 55.6646 35.3292L49.6272 38.3479C49.2567 38.5331 49.1066 38.9836 49.2918 39.3541C49.477 39.7246 49.9275 39.8748 50.298 39.6895L55.6646 37.0062L58.3479 42.3728C58.5331 42.7433 58.9836 42.8934 59.3541 42.7082C59.7246 42.523 59.8748 42.0725 59.6895 41.702L56.6708 35.6646ZM55.7115 39.2372L56.7115 36.2372L55.2885 35.7628L54.2885 38.7628L55.7115 39.2372Z" fill="black"/>
<path d="M31 8V31.5H40.5" stroke="black" stroke-width="2"/>
<path d="M31 42V51" stroke="black" stroke-width="2"/>
<path d="M23.364 40L17 46.364" stroke="black" stroke-width="2"/>
</svg>
