<svg width="120" height="120" viewBox="0 0 120 120" fill="none" xmlns="http://www.w3.org/2000/svg">
<path d="M60 7C57.2668 27.7 19.0022 33.1 19.0022 33.1C19.0022 33.1 17.9773 103.577 60 115" stroke="#38C4F5" stroke-width="3"/>
<path d="M60 7C62.7332 27.7 100.998 33.1 100.998 33.1C100.998 33.1 102.023 103.577 60 115" stroke="#38C4F5" stroke-width="3"/>
<path d="M45 60L56.7857 70L75 51" stroke="#38C4F5" stroke-width="3"/>
<path d="M59 7.00001C59 6.50001 60 3 60 3C60 3 61 6.50001 61 7.00001C61 7.50001 59 7.50001 59 7.00001Z" fill="#38C4F5" stroke="#38C4F5"/>
<path d="M60 117L58 115H62L60 117Z" fill="#38C4F5"/>
<path d="M59 115.5L58 115M58 115L60 117L62 115C62 115 58.5 115 58 115Z" stroke="#38C4F5"/>
</svg>
