<svg width="60" height="60" viewBox="0 0 60 60" fill="none" xmlns="http://www.w3.org/2000/svg">
<g clip-path="url(#clip0)">
<path d="M37.8944 6.44721C38.1414 5.95323 37.9412 5.35256 37.4472 5.10557L29.3974 1.08065C28.9034 0.83366 28.3027 1.03388 28.0557 1.52786C27.8087 2.02184 28.009 2.62251 28.5029 2.8695L35.6584 6.44721L32.0807 13.6026C31.8337 14.0966 32.0339 14.6973 32.5279 14.9443C33.0218 15.1913 33.6225 14.991 33.8695 14.4971L37.8944 6.44721ZM13.3162 14.9487L37.3162 6.94868L36.6838 5.05132L12.6838 13.0513L13.3162 14.9487Z" fill="black"/>
<path d="M53.8944 13.4472C54.1414 12.9532 53.9412 12.3526 53.4472 12.1056L45.3974 8.08065C44.9034 7.83366 44.3027 8.03388 44.0557 8.52786C43.8087 9.02184 44.009 9.62251 44.5029 9.8695L51.6584 13.4472L48.0807 20.6026C47.8337 21.0966 48.0339 21.6973 48.5279 21.9443C49.0218 22.1913 49.6225 21.991 49.8695 21.4971L53.8944 13.4472ZM29.3162 21.9487L53.3162 13.9487L52.6838 12.0513L28.6838 20.0513L29.3162 21.9487Z" fill="black"/>
<path d="M44.2759 47.0222C41.2236 38.9486 36.206 31.2464 33.498 27.6873C33.498 27.6873 30.8549 24.4719 28.9638 25.5336C27.0726 26.5954 30.5231 30.7938 30.5231 30.7938C30.5231 30.7938 26.3273 24.7469 24.1052 26.4518C21.8832 28.1567 26.5639 33.5774 26.5639 33.5774C26.5639 33.5774 22.0394 26.2909 19.3701 28.3219C16.7009 30.3529 22.024 36.9796 22.024 36.9796L13.1302 24.9215C13.1302 24.9215 11.192 22.7435 9.41247 24.0975C7.63295 25.4515 9.07981 27.7223 9.07981 27.7223C9.07981 27.7223 21.1021 43.7689 20.1904 43.4324C19.2787 43.0958 14.3218 41.9972 14.3218 41.9972C14.3218 41.9972 11.1785 42.138 11.1612 44.1211C11.144 46.1041 13.7764 47.1888 13.7764 47.1888C17.9091 47.9343 24.1325 50.829 29.6684 55.889L31.0206 57.16L44.2759 47.0222Z" stroke="black" stroke-width="2"/>
</g>
<defs>
<clipPath id="clip0">
<rect width="60" height="60" fill="white"/>
</clipPath>
</defs>
</svg>
