<svg width="20" height="20" viewBox="0 0 20 20" fill="none" xmlns="http://www.w3.org/2000/svg">
<g clip-path="url(#clip0)">
<path d="M1.25 1.36059C-0.321663 2.99309 3.28943e-06 4.72725 3.28943e-06 9.99559C3.28943e-06 14.3706 -0.76333 18.7564 3.23167 19.7889C4.47917 20.1097 15.5325 20.1098 16.7783 19.7873C18.4417 19.3581 19.795 18.0089 19.98 15.6564C20.0058 15.3281 20.0058 4.66892 19.9792 4.33392C19.7825 1.82809 18.24 0.38392 16.2075 0.0914205C15.7417 0.0239205 15.6483 0.00392049 13.2583 -0.000246175C4.78084 0.00392049 2.9225 -0.37358 1.25 1.36059Z" fill="url(#paint0_linear)"/>
<path d="M9.99834 2.61553C6.97251 2.61553 4.09917 2.34636 3.00167 5.16303C2.54834 6.32636 2.61417 7.83719 2.61417 10.0005C2.61417 11.8989 2.55334 13.683 3.00167 14.8372C4.09667 17.6555 6.99334 17.3855 9.99668 17.3855C12.8942 17.3855 15.8817 17.6872 16.9925 14.8372C17.4467 13.6622 17.38 12.1739 17.38 10.0005C17.38 7.11553 17.5392 5.25303 16.14 3.85469C14.7233 2.43803 12.8075 2.61553 9.99501 2.61553H9.99834ZM9.33668 3.94636C15.6483 3.93636 16.4517 3.23469 16.0083 12.9822C15.8508 16.4297 13.2258 16.0514 9.99918 16.0514C4.11584 16.0514 3.94667 15.883 3.94667 9.99719C3.94667 4.04303 4.41334 3.94969 9.33668 3.94469V3.94636ZM13.94 5.17219C13.4508 5.17219 13.0542 5.56886 13.0542 6.05803C13.0542 6.54719 13.4508 6.94386 13.94 6.94386C14.4292 6.94386 14.8258 6.54719 14.8258 6.05803C14.8258 5.56886 14.4292 5.17219 13.94 5.17219ZM9.99834 6.20803C7.90418 6.20803 6.20668 7.90636 6.20668 10.0005C6.20668 12.0947 7.90418 13.7922 9.99834 13.7922C12.0925 13.7922 13.7892 12.0947 13.7892 10.0005C13.7892 7.90636 12.0925 6.20803 9.99834 6.20803ZM9.99834 7.53886C13.2525 7.53886 13.2567 12.4622 9.99834 12.4622C6.74501 12.4622 6.74001 7.53886 9.99834 7.53886Z" fill="white"/>
</g>
<defs>
<linearGradient id="paint0_linear" x1="1.28835" y1="18.7223" x2="19.8762" y2="2.63473" gradientUnits="userSpaceOnUse">
<stop stop-color="#FFDD55"/>
<stop offset="0.5" stop-color="#FF543E"/>
<stop offset="1" stop-color="#C837AB"/>
</linearGradient>
<clipPath id="clip0">
<rect width="20" height="20" fill="white"/>
</clipPath>
</defs>
</svg>
