<svg width="60" height="60" viewBox="0 0 60 60" fill="none" xmlns="http://www.w3.org/2000/svg">
<path d="M28.6094 4C48.4787 5.325 55.5434 17.6917 55.9849 30.5C56.4265 43.3083 47.1541 57 29.4925 57C11.8308 57 3 42.8667 3 30.5C3 18.1333 10.0647 12.3917 11.8308 10.625" stroke="black" stroke-width="2"/>
<path d="M28.5 4V13" stroke="black" stroke-width="2"/>
<path d="M30.9705 27.9664L17.9142 18.8354C16.9434 18.1565 15.8071 19.4307 16.5923 20.3177L28.2049 33.4366C28.2853 33.5275 28.3806 33.6029 28.4922 33.6507C29.0977 33.9097 31.2263 34.6335 32.5608 32.7021C34.0583 30.5348 31.2668 28.2032 31.0108 27.9963C30.9971 27.9853 30.985 27.9764 30.9705 27.9664Z" stroke="black" stroke-width="2"/>
<path d="M28 9.5V4.02232C28 3.60625 28.4785 3.3722 28.807 3.62764C28.9288 3.72237 29 3.86802 29 4.02232V9.5C29 9.77614 28.7761 10 28.5 10C28.2239 10 28 9.77614 28 9.5Z" stroke="black"/>
</svg>
